<svg width="591" height="45" viewBox="0 0 591 45" fill="none" xmlns="http://www.w3.org/2000/svg">
<path d="M0.538352 5.05114V0.363635H33.2656V5.05114H19.544V44H14.2599V5.05114H0.538352ZM46.0174 24.3125V44H40.989V0.363635H46.0174V16.3864H46.4435C47.2106 14.696 48.3612 13.3537 49.8952 12.3594C51.4435 11.3509 53.5032 10.8466 56.0742 10.8466C58.3043 10.8466 60.2575 11.294 61.9336 12.1889C63.6097 13.0696 64.9094 14.4261 65.8327 16.2585C66.7702 18.0767 67.239 20.392 67.239 23.2045V44H62.2106V23.5455C62.2106 20.946 61.5359 18.9361 60.1864 17.5156C58.8512 16.081 56.9975 15.3636 54.6254 15.3636C52.9776 15.3636 51.5004 15.7116 50.1935 16.4077C48.9009 17.1037 47.8782 18.1193 47.1254 19.4545C46.3867 20.7898 46.0174 22.4091 46.0174 24.3125ZM90.4098 44.6818C87.2564 44.6818 84.5362 43.9858 82.2493 42.5938C79.9766 41.1875 78.2223 39.2273 76.9865 36.7131C75.7649 34.1847 75.1541 31.2443 75.1541 27.892C75.1541 24.5398 75.7649 21.5852 76.9865 19.0284C78.2223 16.4574 79.9411 14.4545 82.1428 13.0199C84.3587 11.571 86.9439 10.8466 89.8984 10.8466C91.603 10.8466 93.2862 11.1307 94.9482 11.6989C96.6101 12.267 98.1229 13.1903 99.4865 14.4688C100.85 15.733 101.937 17.4091 102.746 19.4972C103.556 21.5852 103.961 24.1562 103.961 27.2102V29.3409H78.7337V24.9943H98.8473C98.8473 23.1477 98.478 21.5 97.7393 20.0511C97.0149 18.6023 95.978 17.4588 94.6286 16.6207C93.2933 15.7827 91.7166 15.3636 89.8984 15.3636C87.8956 15.3636 86.1626 15.8608 84.6996 16.8551C83.2507 17.8352 82.1357 19.1136 81.3544 20.6903C80.5732 22.267 80.1825 23.9574 80.1825 25.7614V28.6591C80.1825 31.1307 80.6087 33.2259 81.4609 34.9446C82.3274 36.6491 83.5277 37.9489 85.0618 38.8438C86.5959 39.7244 88.3786 40.1648 90.4098 40.1648C91.7308 40.1648 92.924 39.9801 93.9893 39.6108C95.0689 39.2273 95.9993 38.6591 96.7805 37.9062C97.5618 37.1392 98.1655 36.1875 98.5916 35.0511L103.45 36.4148C102.938 38.0625 102.079 39.5114 100.871 40.7614C99.6641 41.9972 98.1726 42.9631 96.397 43.6591C94.6214 44.3409 92.6257 44.6818 90.4098 44.6818ZM362.878 44V0.363635H377.622C381.045 0.363635 383.844 0.981533 386.017 2.21733C388.205 3.43892 389.824 5.09375 390.875 7.18182C391.926 9.26989 392.452 11.5994 392.452 14.1705C392.452 16.7415 391.926 19.0781 390.875 21.1804C389.838 23.2827 388.233 24.9588 386.06 26.2088C383.886 27.4446 381.102 28.0625 377.707 28.0625H367.139V23.375H377.537C379.881 23.375 381.763 22.9702 383.183 22.1605C384.604 21.3509 385.634 20.2571 386.273 18.8793C386.926 17.4872 387.253 15.9176 387.253 14.1705C387.253 12.4233 386.926 10.8608 386.273 9.48295C385.634 8.10511 384.597 7.02557 383.162 6.24432C381.727 5.44886 379.824 5.05114 377.452 5.05114H368.162V44H362.878ZM400.532 44V11.2727H405.39V16.2159H405.731C406.327 14.5966 407.407 13.2827 408.969 12.2741C410.532 11.2656 412.293 10.7614 414.254 10.7614C414.623 10.7614 415.085 10.7685 415.638 10.7827C416.192 10.7969 416.612 10.8182 416.896 10.8466V15.9602C416.725 15.9176 416.335 15.8537 415.724 15.7685C415.127 15.669 414.495 15.6193 413.827 15.6193C412.237 15.6193 410.816 15.9531 409.566 16.6207C408.33 17.2741 407.35 18.1832 406.626 19.348C405.915 20.4986 405.56 21.8125 405.56 23.2898V44H400.532ZM435.406 44.6818C432.451 44.6818 429.859 43.9787 427.629 42.5724C425.413 41.1662 423.68 39.1989 422.43 36.6705C421.194 34.142 420.576 31.1875 420.576 27.8068C420.576 24.3977 421.194 21.4219 422.43 18.8793C423.68 16.3366 425.413 14.3622 427.629 12.956C429.859 11.5497 432.451 10.8466 435.406 10.8466C438.36 10.8466 440.945 11.5497 443.161 12.956C445.391 14.3622 447.124 16.3366 448.36 18.8793C449.61 21.4219 450.235 24.3977 450.235 27.8068C450.235 31.1875 449.61 34.142 448.36 36.6705C447.124 39.1989 445.391 41.1662 443.161 42.5724C440.945 43.9787 438.36 44.6818 435.406 44.6818ZM435.406 40.1648C437.65 40.1648 439.496 39.5895 440.945 38.4389C442.394 37.2884 443.467 35.7756 444.163 33.9006C444.859 32.0256 445.207 29.9943 445.207 27.8068C445.207 25.6193 444.859 23.581 444.163 21.6918C443.467 19.8026 442.394 18.2756 440.945 17.1108C439.496 15.946 437.65 15.3636 435.406 15.3636C433.161 15.3636 431.315 15.946 429.866 17.1108C428.417 18.2756 427.344 19.8026 426.648 21.6918C425.952 23.581 425.604 25.6193 425.604 27.8068C425.604 29.9943 425.952 32.0256 426.648 33.9006C427.344 35.7756 428.417 37.2884 429.866 38.4389C431.315 39.5895 433.161 40.1648 435.406 40.1648ZM472.394 11.2727V15.5341H455.434V11.2727H472.394ZM460.377 3.43182H465.405V34.625C465.405 36.0455 465.611 37.1108 466.023 37.821C466.449 38.517 466.989 38.9858 467.642 39.2273C468.31 39.4545 469.013 39.5682 469.752 39.5682C470.306 39.5682 470.76 39.5398 471.115 39.483C471.471 39.4119 471.755 39.3551 471.968 39.3125L472.99 43.8295C472.65 43.9574 472.174 44.0852 471.563 44.2131C470.952 44.3551 470.178 44.4261 469.24 44.4261C467.82 44.4261 466.428 44.1207 465.064 43.5099C463.715 42.8991 462.593 41.9688 461.698 40.7188C460.817 39.4688 460.377 37.892 460.377 35.9886V3.43182ZM493.152 44.6818C490.197 44.6818 487.605 43.9787 485.375 42.5724C483.159 41.1662 481.426 39.1989 480.176 36.6705C478.94 34.142 478.322 31.1875 478.322 27.8068C478.322 24.3977 478.94 21.4219 480.176 18.8793C481.426 16.3366 483.159 14.3622 485.375 12.956C487.605 11.5497 490.197 10.8466 493.152 10.8466C496.106 10.8466 498.691 11.5497 500.907 12.956C503.137 14.3622 504.87 16.3366 506.106 18.8793C507.356 21.4219 507.981 24.3977 507.981 27.8068C507.981 31.1875 507.356 34.142 506.106 36.6705C504.87 39.1989 503.137 41.1662 500.907 42.5724C498.691 43.9787 496.106 44.6818 493.152 44.6818ZM493.152 40.1648C495.396 40.1648 497.243 39.5895 498.691 38.4389C500.14 37.2884 501.213 35.7756 501.909 33.9006C502.605 32.0256 502.953 29.9943 502.953 27.8068C502.953 25.6193 502.605 23.581 501.909 21.6918C501.213 19.8026 500.14 18.2756 498.691 17.1108C497.243 15.946 495.396 15.3636 493.152 15.3636C490.907 15.3636 489.061 15.946 487.612 17.1108C486.163 18.2756 485.091 19.8026 484.395 21.6918C483.699 23.581 483.35 25.6193 483.35 27.8068C483.35 29.9943 483.699 32.0256 484.395 33.9006C485.091 35.7756 486.163 37.2884 487.612 38.4389C489.061 39.5895 490.907 40.1648 493.152 40.1648ZM529.202 44.6818C526.134 44.6818 523.492 43.9574 521.276 42.5085C519.06 41.0597 517.356 39.0639 516.163 36.5213C514.969 33.9787 514.373 31.0739 514.373 27.8068C514.373 24.483 514.984 21.5497 516.205 19.0071C517.441 16.4503 519.16 14.4545 521.362 13.0199C523.577 11.571 526.163 10.8466 529.117 10.8466C531.418 10.8466 533.492 11.2727 535.339 12.125C537.185 12.9773 538.698 14.1705 539.877 15.7045C541.056 17.2386 541.788 19.0284 542.072 21.0739H537.043C536.66 19.5824 535.808 18.2614 534.487 17.1108C533.18 15.946 531.418 15.3636 529.202 15.3636C527.242 15.3636 525.523 15.875 524.046 16.8977C522.583 17.9062 521.44 19.3338 520.616 21.1804C519.806 23.0128 519.401 25.1648 519.401 27.6364C519.401 30.1648 519.799 32.3665 520.594 34.2415C521.404 36.1165 522.54 37.5724 524.004 38.6094C525.481 39.6463 527.214 40.1648 529.202 40.1648C530.509 40.1648 531.695 39.9375 532.761 39.483C533.826 39.0284 534.728 38.375 535.467 37.5227C536.205 36.6705 536.731 35.6477 537.043 34.4545H542.072C541.788 36.3864 541.085 38.1264 539.962 39.6747C538.854 41.2088 537.384 42.4304 535.552 43.3395C533.734 44.2344 531.617 44.6818 529.202 44.6818ZM562.968 44.6818C560.013 44.6818 557.421 43.9787 555.191 42.5724C552.975 41.1662 551.242 39.1989 549.992 36.6705C548.756 34.142 548.138 31.1875 548.138 27.8068C548.138 24.3977 548.756 21.4219 549.992 18.8793C551.242 16.3366 552.975 14.3622 555.191 12.956C557.421 11.5497 560.013 10.8466 562.968 10.8466C565.923 10.8466 568.508 11.5497 570.724 12.956C572.954 14.3622 574.687 16.3366 575.923 18.8793C577.173 21.4219 577.798 24.3977 577.798 27.8068C577.798 31.1875 577.173 34.142 575.923 36.6705C574.687 39.1989 572.954 41.1662 570.724 42.5724C568.508 43.9787 565.923 44.6818 562.968 44.6818ZM562.968 40.1648C565.212 40.1648 567.059 39.5895 568.508 38.4389C569.957 37.2884 571.029 35.7756 571.725 33.9006C572.421 32.0256 572.769 29.9943 572.769 27.8068C572.769 25.6193 572.421 23.581 571.725 21.6918C571.029 19.8026 569.957 18.2756 568.508 17.1108C567.059 15.946 565.212 15.3636 562.968 15.3636C560.724 15.3636 558.877 15.946 557.428 17.1108C555.979 18.2756 554.907 19.8026 554.211 21.6918C553.515 23.581 553.167 25.6193 553.167 27.8068C553.167 29.9943 553.515 32.0256 554.211 33.9006C554.907 35.7756 555.979 37.2884 557.428 38.4389C558.877 39.5895 560.724 40.1648 562.968 40.1648ZM590.752 0.363635V44H585.723V0.363635H590.752Z" fill="black"/>
<path d="M128.175 44V0.363635H157.067V7.97017H137.401V18.3679H155.15V25.9744H137.401V44H128.175ZM175.865 44.6392C172.499 44.6392 169.601 43.9574 167.172 42.5938C164.757 41.2159 162.896 39.2699 161.589 36.7557C160.283 34.2273 159.629 31.2372 159.629 27.7855C159.629 24.419 160.283 21.4645 161.589 18.9219C162.896 16.3793 164.736 14.3977 167.108 12.9773C169.494 11.5568 172.293 10.8466 175.503 10.8466C177.662 10.8466 179.672 11.1946 181.533 11.8906C183.408 12.5724 185.041 13.6023 186.433 14.9801C187.839 16.358 188.933 18.0909 189.714 20.179C190.496 22.2528 190.886 24.6818 190.886 27.4659V29.9588H163.251V24.3338H182.342C182.342 23.027 182.058 21.8693 181.49 20.8608C180.922 19.8523 180.134 19.0639 179.125 18.4957C178.131 17.9134 176.973 17.6222 175.652 17.6222C174.274 17.6222 173.053 17.9418 171.987 18.581C170.936 19.206 170.112 20.0511 169.516 21.1165C168.919 22.1676 168.614 23.3395 168.599 24.6321V29.9801C168.599 31.5994 168.898 32.9986 169.494 34.1776C170.105 35.3565 170.964 36.2656 172.072 36.9048C173.18 37.544 174.494 37.8636 176.014 37.8636C177.023 37.8636 177.946 37.7216 178.784 37.4375C179.622 37.1534 180.339 36.7273 180.936 36.1591C181.533 35.5909 181.987 34.8949 182.3 34.071L190.695 34.625C190.268 36.642 189.395 38.4034 188.074 39.9091C186.767 41.4006 185.077 42.5653 183.003 43.4034C180.943 44.2273 178.564 44.6392 175.865 44.6392ZM209.119 44.5327C206.634 44.5327 204.382 43.8935 202.365 42.6151C200.362 41.3224 198.771 39.4261 197.592 36.9261C196.428 34.4119 195.845 31.3295 195.845 27.679C195.845 23.929 196.449 20.8111 197.656 18.3253C198.864 15.8253 200.469 13.9574 202.472 12.7216C204.489 11.4716 206.697 10.8466 209.098 10.8466C210.93 10.8466 212.457 11.1591 213.679 11.7841C214.915 12.3949 215.909 13.1619 216.662 14.0852C217.429 14.9943 218.011 15.8892 218.409 16.7699H218.686V0.363635H227.741V44H218.793V38.7585H218.409C217.983 39.6676 217.379 40.5696 216.598 41.4645C215.831 42.3452 214.83 43.0767 213.594 43.6591C212.372 44.2415 210.881 44.5327 209.119 44.5327ZM211.996 37.3097C213.459 37.3097 214.695 36.9119 215.703 36.1165C216.726 35.3068 217.507 34.1776 218.047 32.7287C218.601 31.2798 218.878 29.5824 218.878 27.6364C218.878 25.6903 218.608 24 218.068 22.5653C217.528 21.1307 216.747 20.0227 215.724 19.2415C214.702 18.4602 213.459 18.0696 211.996 18.0696C210.504 18.0696 209.247 18.4744 208.224 19.2841C207.202 20.0937 206.428 21.2159 205.902 22.6506C205.376 24.0852 205.114 25.7472 205.114 27.6364C205.114 29.5398 205.376 31.223 205.902 32.6861C206.442 34.1349 207.216 35.2713 208.224 36.0952C209.247 36.9048 210.504 37.3097 211.996 37.3097Z" fill="#BF002E"/>
<path d="M250.369 44.6392C247.002 44.6392 244.105 43.9574 241.676 42.5938C239.261 41.2159 237.4 39.2699 236.093 36.7557C234.787 34.2273 234.133 31.2372 234.133 27.7855C234.133 24.419 234.787 21.4645 236.093 18.9219C237.4 16.3793 239.24 14.3977 241.612 12.9773C243.998 11.5568 246.797 10.8466 250.007 10.8466C252.166 10.8466 254.176 11.1946 256.037 11.8906C257.912 12.5724 259.545 13.6023 260.937 14.9801C262.343 16.358 263.437 18.0909 264.218 20.179C265 22.2528 265.39 24.6818 265.39 27.4659V29.9588H237.755V24.3338H256.846C256.846 23.027 256.562 21.8693 255.994 20.8608C255.426 19.8523 254.637 19.0639 253.629 18.4957C252.635 17.9134 251.477 17.6222 250.156 17.6222C248.778 17.6222 247.556 17.9418 246.491 18.581C245.44 19.206 244.616 20.0511 244.02 21.1165C243.423 22.1676 243.118 23.3395 243.103 24.6321V29.9801C243.103 31.5994 243.402 32.9986 243.998 34.1776C244.609 35.3565 245.468 36.2656 246.576 36.9048C247.684 37.544 248.998 37.8636 250.518 37.8636C251.527 37.8636 252.45 37.7216 253.288 37.4375C254.126 37.1534 254.843 36.7273 255.44 36.1591C256.037 35.5909 256.491 34.8949 256.804 34.071L265.199 34.625C264.772 36.642 263.899 38.4034 262.578 39.9091C261.271 41.4006 259.581 42.5653 257.507 43.4034C255.447 44.2273 253.068 44.6392 250.369 44.6392ZM271.564 44V11.2727H280.363V16.983H280.704C281.301 14.9517 282.302 13.4176 283.708 12.3807C285.115 11.3295 286.734 10.804 288.566 10.804C289.021 10.804 289.511 10.8324 290.037 10.8892C290.562 10.946 291.024 11.0241 291.422 11.1236V19.1776C290.995 19.0497 290.406 18.9361 289.653 18.8366C288.9 18.7372 288.211 18.6875 287.586 18.6875C286.251 18.6875 285.058 18.9787 284.007 19.5611C282.97 20.1293 282.146 20.9247 281.535 21.9474C280.939 22.9702 280.64 24.1491 280.64 25.4844V44H271.564ZM304.759 44.6179C302.671 44.6179 300.81 44.2557 299.177 43.5312C297.543 42.7926 296.251 41.706 295.299 40.2713C294.362 38.8224 293.893 37.0185 293.893 34.8594C293.893 33.0412 294.227 31.5142 294.894 30.2784C295.562 29.0426 296.471 28.0483 297.621 27.2955C298.772 26.5426 300.079 25.9744 301.542 25.5909C303.019 25.2074 304.567 24.9375 306.187 24.7812C308.09 24.5824 309.624 24.3977 310.789 24.2273C311.954 24.0426 312.799 23.7727 313.325 23.4176C313.85 23.0625 314.113 22.5369 314.113 21.8409V21.7131C314.113 20.3636 313.687 19.3196 312.835 18.581C311.996 17.8423 310.803 17.473 309.255 17.473C307.621 17.473 306.322 17.8352 305.356 18.5597C304.39 19.2699 303.751 20.1648 303.438 21.2443L295.043 20.5625C295.469 18.5739 296.308 16.8551 297.558 15.4062C298.808 13.9432 300.42 12.821 302.394 12.0398C304.383 11.2443 306.684 10.8466 309.298 10.8466C311.116 10.8466 312.856 11.0597 314.518 11.4858C316.194 11.9119 317.678 12.5724 318.971 13.4673C320.278 14.3622 321.308 15.5128 322.06 16.919C322.813 18.3111 323.19 19.9801 323.19 21.9261V44H314.582V39.4616H314.326C313.8 40.4844 313.097 41.3864 312.217 42.1676C311.336 42.9347 310.278 43.5384 309.042 43.9787C307.806 44.4048 306.379 44.6179 304.759 44.6179ZM307.359 38.3537C308.694 38.3537 309.873 38.0909 310.896 37.5653C311.918 37.0256 312.721 36.3011 313.303 35.392C313.886 34.483 314.177 33.4531 314.177 32.3026V28.8295C313.893 29.0142 313.502 29.1847 313.005 29.3409C312.522 29.483 311.975 29.6179 311.364 29.7457C310.754 29.8594 310.143 29.9659 309.532 30.0653C308.921 30.1506 308.367 30.2287 307.87 30.2997C306.805 30.456 305.874 30.7045 305.079 31.0455C304.283 31.3864 303.665 31.848 303.225 32.4304C302.785 32.9986 302.565 33.7088 302.565 34.5611C302.565 35.7969 303.012 36.7415 303.907 37.3949C304.816 38.0341 305.967 38.3537 307.359 38.3537ZM339.558 0.363635V44H330.482V0.363635H339.558Z" fill="#004DA8"/>
</svg>
